<?xml version="1.0" encoding="utf-8"?>
<!-- Generator: Adobe Illustrator 23.0.3, SVG Export Plug-In . SVG Version: 6.00 Build 0)  -->
<svg version="1.1" id="Layer_1" xmlns="http://www.w3.org/2000/svg" xmlns:xlink="http://www.w3.org/1999/xlink" x="0px" y="0px"
	 viewBox="0 0 144 137.6" style="enable-background:new 0 0 144 137.6;" xml:space="preserve">
<style type="text/css">
	.st0{fill:#FFFFFF;}
</style>
<g>
	<g>
		<path class="st0" d="M46.6,137.6c-12.9-4.1-24.7-12.6-33-23.9C5.2,102.3,0.4,88.2,0,73.9c-0.1-3.6,0.1-7.2,0.6-10.8
			C1,59.5,1.8,56,2.8,52.5c1-3.5,2.3-6.9,3.8-10.2c1.5-3.3,3.3-6.5,5.3-9.5c2-3,4.2-5.9,6.6-8.6c2.5-2.7,5.1-5.2,7.9-7.6
			c2.8-2.3,5.8-4.4,8.9-6.3c3.1-1.8,6.4-3.5,9.8-4.9C48.4,4,51.9,2.9,55.4,2c3.5-0.9,7.2-1.4,10.8-1.8c3.6-0.3,7.3-0.3,10.9-0.1
			c3.6,0.2,7.2,0.7,10.8,1.5c3.6,0.8,7,1.9,10.4,3.1c3.4,1.3,6.7,2.9,9.8,4.6c3.1,1.8,6.2,3.8,9,6c2.8,2.3,5.5,4.7,7.9,7.3
			c9.8,10.5,16.2,23.9,18.2,37.9c2,13.9-0.4,28.2-6.8,40.2c1-3.3,1.8-6.5,2.4-9.8c0.5-3.3,0.9-6.6,1-9.9c0.1-3.3,0-6.6-0.3-9.8
			c-0.4-3.2-0.9-6.5-1.7-9.6c-3.1-12.6-9.9-24-19.1-32.7c-4.6-4.3-9.8-8-15.4-10.8c-2.8-1.4-5.7-2.6-8.6-3.6c-3-1-6-1.8-9-2.4
			c-3.1-0.5-6.1-1-9.2-1.1c-3.1-0.1-6.2,0-9.3,0.3c-3.1,0.3-6.1,0.8-9.2,1.6c-3,0.8-5.9,1.7-8.8,2.9c-2.9,1.2-5.6,2.6-8.3,4.1
			c-2.7,1.6-5.2,3.4-7.6,5.3c-2.4,1.9-4.7,4.1-6.8,6.3c-2.1,2.3-4,4.7-5.9,7.2c-1.8,2.5-3.3,5.3-4.8,8c-1.4,2.8-2.6,5.7-3.6,8.7
			c-1,3-1.8,6-2.3,9.1c-0.5,3.1-0.9,6.2-1,9.4c-0.5,12.6,2.7,25.5,9.3,36.7c1.6,2.8,3.5,5.5,5.5,8.1c2,2.6,4.3,5,6.7,7.3
			c2.4,2.3,5,4.4,7.7,6.3C40.7,134.2,43.6,135.9,46.6,137.6z"/>
		<path class="st0" d="M94,24.5c10.3,3,19.7,9.5,26.4,18.5c6.7,8.9,10.7,20.1,11.1,31.5c0.1,2.9-0.1,5.7-0.4,8.6
			c-0.3,2.9-1,5.7-1.7,8.5c-0.8,2.8-1.8,5.5-3,8.2c-1.2,2.6-2.6,5.2-4.2,7.6c-1.6,2.4-3.4,4.8-5.3,6.9c-2,2.2-4,4.2-6.3,6.1
			c-2.3,1.8-4.7,3.5-7.2,5c-2.5,1.5-5.1,2.8-7.8,3.9c-2.7,1.1-5.5,2-8.3,2.7c-2.8,0.7-5.7,1.1-8.6,1.4c-2.9,0.2-5.8,0.2-8.7,0.1
			c-2.9-0.2-5.8-0.6-8.6-1.2c-2.8-0.6-5.6-1.5-8.3-2.5c-2.7-1.1-5.3-2.3-7.8-3.7c-2.5-1.5-4.9-3.1-7.2-4.9c-2.2-1.8-4.4-3.8-6.3-5.9
			c-7.8-8.4-12.8-19.2-14.2-30.3c-1.5-11.1,0.7-22.4,5.9-31.7c-0.7,2.6-1.3,5.1-1.7,7.7c-0.4,2.6-0.6,5.2-0.7,7.8
			c0,2.6,0.1,5.1,0.4,7.7c0.3,2.5,0.8,5,1.5,7.4c2.6,9.7,7.9,18.5,15.1,25.1c3.6,3.3,7.6,6.1,11.9,8.2c2.2,1.1,4.4,2,6.7,2.8
			c2.3,0.7,4.6,1.4,6.9,1.8c2.4,0.4,4.7,0.7,7.1,0.8c2.4,0.1,4.8,0,7.1-0.2c2.4-0.3,4.7-0.6,7-1.2c2.3-0.6,4.6-1.3,6.8-2.2
			c2.2-0.9,4.3-2,6.4-3.1c2-1.2,4-2.6,5.9-4c1.9-1.5,3.6-3.1,5.3-4.8c1.6-1.7,3.1-3.6,4.5-5.5c1.4-1.9,2.6-4,3.7-6.1
			c1.1-2.2,2-4.4,2.8-6.6c1.5-4.6,2.5-9.3,2.7-14.2c0.5-9.7-1.9-19.7-6.8-28.5c-1.2-2.2-2.7-4.3-4.2-6.3c-1.5-2-3.3-3.9-5.1-5.8
			c-1.8-1.8-3.8-3.5-5.9-5.1C98.6,27.2,96.3,25.8,94,24.5z"/>
	</g>
</g>
</svg>
