<?xml version="1.0" encoding="utf-8"?>
<!-- Generator: Adobe Illustrator 23.0.3, SVG Export Plug-In . SVG Version: 6.00 Build 0)  -->
<svg version="1.1" id="Layer_1" xmlns="http://www.w3.org/2000/svg" xmlns:xlink="http://www.w3.org/1999/xlink" x="0px" y="0px"
	 viewBox="0 0 300 119.8" style="enable-background:new 0 0 300 119.8;" xml:space="preserve">
<style type="text/css">
	.st0{filter:url(#Adobe_OpacityMaskFilter);}
	.st1{mask:url(#SVGID_1_);}
	.st2{fill:#FAFAFA;}
</style>
<g>
	<defs>
		<filter id="Adobe_OpacityMaskFilter" filterUnits="userSpaceOnUse" x="111.1" y="0" width="125.4" height="119.8">
			<feFlood  style="flood-color:white;flood-opacity:1" result="back"/>
			<feBlend  in="SourceGraphic" in2="back" mode="normal"/>
		</filter>
	</defs>
	<mask maskUnits="userSpaceOnUse" x="111.1" y="0" width="125.4" height="119.8" id="SVGID_1_">
		<g class="st0">
			<rect x="92.1" y="35.7" width="66" height="48.3"/>
		</g>
	</mask>
	<g class="st1">
		<path class="st2" d="M151.6,119.8c-11.3-3.5-21.5-11-28.8-20.8c-7.3-9.8-11.5-22.1-11.8-34.6c-0.1-3.1,0.1-6.3,0.5-9.4
			c0.4-3.1,1.1-6.2,1.9-9.2c0.9-3,2-6,3.3-8.9c1.3-2.9,2.8-5.6,4.6-8.3c1.7-2.6,3.7-5.2,5.8-7.5c2.1-2.3,4.4-4.6,6.9-6.6
			c2.5-2,5.1-3.8,7.8-5.5c2.7-1.6,5.6-3,8.5-4.3c3-1.2,6-2.1,9.1-2.9c3.1-0.7,6.2-1.3,9.4-1.6c3.2-0.3,6.3-0.3,9.5-0.1
			c3.2,0.2,6.3,0.7,9.4,1.3c3.1,0.7,6.1,1.6,9.1,2.7c2.9,1.1,5.8,2.5,8.5,4c2.7,1.6,5.4,3.3,7.8,5.2c2.4,2,4.8,4.1,6.9,6.4
			c8.6,9.1,14.1,20.8,15.9,33c1.8,12.1-0.4,24.6-5.9,35c0.8-2.8,1.6-5.7,2.1-8.5c0.5-2.9,0.8-5.7,0.9-8.6c0.1-2.9,0-5.7-0.3-8.6
			c-0.3-2.8-0.8-5.6-1.5-8.4c-2.7-11-8.6-20.9-16.6-28.5c-4-3.8-8.5-6.9-13.4-9.4c-2.4-1.2-5-2.3-7.5-3.2c-2.6-0.9-5.2-1.6-7.9-2.1
			c-2.7-0.5-5.4-0.8-8.1-0.9c-2.7-0.1-5.4,0-8.1,0.3c-2.7,0.3-5.4,0.7-8,1.4c-2.6,0.7-5.2,1.5-7.7,2.5c-2.5,1-4.9,2.2-7.3,3.6
			c-2.3,1.4-4.5,2.9-6.7,4.6c-2.1,1.7-4.1,3.5-6,5.5c-1.9,2-3.5,4.1-5.1,6.3c-1.6,2.2-2.9,4.6-4.2,7c-1.2,2.4-2.3,5-3.1,7.5
			c-0.8,2.6-1.6,5.2-2,7.9c-0.5,2.7-0.8,5.4-0.9,8.2c-0.4,11,2.4,22.2,8.1,32c1.4,2.4,3.1,4.8,4.8,7c1.8,2.2,3.7,4.3,5.8,6.3
			c2.1,2,4.3,3.8,6.7,5.5C146.5,116.9,149,118.4,151.6,119.8z"/>
		<path class="st2" d="M192.9,21.3c8.9,2.6,17.2,8.3,23,16.1c5.9,7.7,9.3,17.5,9.6,27.5c0.1,2.5-0.1,5-0.3,7.5
			c-0.3,2.5-0.8,5-1.5,7.4c-0.7,2.4-1.5,4.8-2.6,7.1c-1.1,2.3-2.3,4.5-3.6,6.7c-1.4,2.1-2.9,4.2-4.6,6c-1.7,1.9-3.5,3.7-5.5,5.3
			c-2,1.6-4.1,3.1-6.2,4.4c-2.2,1.3-4.5,2.4-6.8,3.4c-2.4,0.9-4.8,1.7-7.3,2.3c-2.5,0.6-5,1-7.5,1.2c-2.5,0.2-5.1,0.2-7.6,0.1
			c-2.5-0.2-5.1-0.5-7.5-1.1c-2.5-0.6-4.9-1.3-7.3-2.2c-2.4-0.9-4.6-2-6.8-3.3c-2.2-1.3-4.3-2.7-6.2-4.2c-1.9-1.6-3.8-3.3-5.5-5.1
			c-6.8-7.3-11.1-16.7-12.4-26.4c-1.3-9.6,0.6-19.5,5.2-27.6c-0.6,2.2-1.2,4.5-1.5,6.7c-0.3,2.3-0.5,4.5-0.6,6.8
			c0,2.2,0.1,4.5,0.4,6.7c0.3,2.2,0.7,4.4,1.3,6.5c2.3,8.5,6.9,16.1,13.1,21.9c3.1,2.9,6.6,5.3,10.3,7.2c1.9,0.9,3.8,1.7,5.8,2.4
			c2,0.6,4,1.2,6,1.6c2,0.3,4.1,0.6,6.2,0.7c2.1,0.1,4.1,0,6.2-0.2c2.1-0.2,4.1-0.6,6.1-1.1c2-0.5,4-1.2,5.9-1.9
			c1.9-0.8,3.8-1.7,5.6-2.7c1.8-1,3.5-2.2,5.1-3.5c1.6-1.3,3.1-2.7,4.6-4.2c1.4-1.5,2.7-3.1,3.9-4.8c1.2-1.7,2.3-3.5,3.2-5.3
			c0.9-1.9,1.8-3.8,2.5-5.8c1.3-4,2.2-8.1,2.4-12.4c0.4-8.5-1.6-17.2-6-24.8c-1.1-1.9-2.3-3.7-3.6-5.5c-1.3-1.8-2.8-3.4-4.4-5
			c-1.6-1.6-3.3-3-5.1-4.4C196.9,23.7,195,22.5,192.9,21.3z"/>
	</g>
	<g>
		<polygon class="st2" points="0,49.1 10,49.1 10,77.9 17.8,77.9 17.8,49.1 27.9,49.1 27.9,41.8 0,41.8 		"/>
		<polygon class="st2" points="59.7,55.7 46.1,55.7 46.1,41.8 38.3,41.8 38.3,77.9 46.1,77.9 46.1,63 59.7,63 59.7,77.9 67.5,77.9 
			67.5,41.8 59.7,41.8 		"/>
		<polygon class="st2" points="88.8,63.3 101.3,63.3 101.3,56.2 88.8,56.2 88.8,49 102.6,49 102.6,41.8 80.9,41.8 80.9,77.9 
			103.2,77.9 103.2,70.7 88.8,70.7 		"/>
		<polygon class="st2" points="111.9,49.1 122,49.1 122,77.9 129.8,77.9 129.8,49.1 139.8,49.1 139.8,41.8 111.9,41.8 		"/>
		<rect x="150.2" y="41.8" class="st2" width="7.8" height="36.1"/>
		<path class="st2" d="M196.2,62.6c-0.3-0.6-0.6-1.2-1.1-1.7c-0.5-0.5-0.9-1-1.3-1.3c-0.4-0.4-1-0.7-1.7-1.1
			c-0.7-0.4-1.3-0.6-1.7-0.9c-0.5-0.2-1.1-0.4-1.9-0.7s-1.4-0.4-1.9-0.6s-1.1-0.3-1.9-0.5c-1-0.2-1.7-0.4-2.2-0.6
			c-0.5-0.1-1.1-0.3-1.8-0.6c-0.7-0.3-1.2-0.5-1.6-0.8c-0.4-0.3-0.7-0.6-0.9-1c-0.3-0.4-0.4-0.8-0.4-1.3c0-1.1,0.5-2,1.5-2.5
			c1-0.6,2.2-0.9,3.6-0.9c1.6,0,2.9,0.4,3.9,1.2s1.6,1.9,1.6,3.4h7.7c0-3.6-1.1-6.5-3.4-8.5c-2.3-2.1-5.5-3.1-9.6-3.1
			c-4,0-7.2,0.9-9.6,2.8c-2.3,1.9-3.5,4.5-3.5,8c0,0.5,0,1.1,0.1,1.6c0.4,3.2,2.2,5.5,5.4,7.1c1.3,0.7,3.5,1.4,6.6,2.1
			c0.9,0.2,1.5,0.4,1.9,0.5c0.4,0.1,1,0.3,1.7,0.5s1.2,0.4,1.5,0.6c0.3,0.2,0.7,0.4,1.1,0.7s0.6,0.6,0.8,1c0.2,0.4,0.2,0.8,0.2,1.2
			c0,1.3-0.6,2.3-1.7,3.1c-1.2,0.8-2.5,1.2-4.1,1.2c-1.7,0-3.2-0.4-4.3-1.3s-1.8-2.2-1.8-3.8h-7.9c0,3.8,1.3,6.9,3.9,9.1
			c2.6,2.2,6,3.3,10.2,3.3c1.9,0,3.7-0.2,5.3-0.7c1.6-0.5,3.1-1.2,4.3-2.1s2.2-2.1,3-3.6c0.7-1.5,1.1-3.2,1.1-5.1
			c0-0.9-0.1-1.7-0.3-2.5C196.7,63.8,196.5,63.2,196.2,62.6z"/>
		<rect x="253.9" y="41.8" class="st2" width="7.8" height="36.1"/>
		<polygon class="st2" points="272.1,41.8 272.1,49.1 282.1,49.1 282.1,77.9 289.9,77.9 289.9,49.1 300,49.1 300,41.8 		"/>
	</g>
</g>
</svg>
